<svg xmlns="http://www.w3.org/2000/svg" viewBox="0 0 32 32"><title>The Hague</title><path d="M13.52 15.95L14.21 17.42L13.31 17.11L13.02 17.08L13.01 16.98L12.60 16.31L12.92 16.09L13.12 16.15ZM12.25 15.67L13.01 16.98L13.02 17.08L12.14 16.95L11.93 16.79L11.55 16.04ZM14.40 15.40L14.78 15.98L14.71 16.03L13.87 16.66L13.51 15.94ZM12.38 13.71L13.25 15.29L12.17 15.72L11.31 14.30ZM13.25 15.31L13.52 15.95L13.12 16.15L12.92 16.09L12.60 16.31L12.25 15.67L13.04 15.35ZM15.90 14.88L16.12 15.27L16.55 15.04L16.68 15.28L16.88 15.21L17.09 15.50L15.92 16.39L15.76 16.26L15.23 15.39L15.24 15.22ZM14.80 15.99L15.32 16.83L14.84 17.19L14.22 17.43L13.87 16.66L14.70 16.10ZM16.82 13.80L17.54 14.44L17.21 14.67L16.12 15.27L15.90 14.88L15.31 15.22L15.10 14.97L16.23 14.32L16.07 13.99L16.23 13.86L16.43 14.06ZM14.08 14.90L14.00 14.96L14.31 15.45L13.51 15.94L13.23 15.34ZM14.19 13.70L14.48 14.06L14.53 14.13L14.80 14.64L13.97 14.93L13.25 15.29L12.84 14.56L13.69 13.94L13.82 14.03ZM14.80 14.64L14.99 14.77L15.24 15.22L15.23 15.39L15.76 16.26L15.94 16.41L16.10 17.03L16.08 17.12L15.74 17.13L15.34 16.88L14.89 16.11L14.41 15.40L14.30 15.44L14.00 14.96L14.09 14.93ZM15.16 9.78L15.73 10.14L15.95 10.20L16.63 11.51L16.27 11.67L15.66 11.83L15.22 12.09L14.85 12.03L14.76 11.98L14.41 11.54L14.52 11.42L14.67 10.98L15.21 10.63L15.13 9.94ZM17.99 9.66L18.48 10.36L17.77 10.80L17.11 11.24L16.80 11.36L16.62 11.50L16.27 10.79L16.58 10.61L17.18 10.17L17.33 10.11L17.61 10.12L17.56 10.02L17.62 9.93L17.92 9.68ZM17.52 10.99L17.76 11.39L17.88 11.68L17.40 12.06L17.00 12.25L16.62 11.50L16.80 11.36L17.08 11.20ZM10.52 19.10L10.70 19.31L11.27 19.87L10.74 20.29L9.21 21.71L8.59 21.33L9.77 20.07L9.68 19.98ZM20.47 9.89L20.78 10.31L20.10 10.67L20.38 11.21L19.81 11.51L19.32 11.91L19.05 12.19L17.61 13.18L17.35 12.84L17.00 12.25L17.40 12.06L18.38 11.29ZM18.74 12.40L18.83 12.63L19.24 13.32L19.57 13.79L19.87 14.12L19.43 14.43L19.34 14.38L19.26 14.43L18.88 14.18L18.45 13.82L18.25 13.57L18.41 13.48L18.13 13.10L18.25 12.99L18.17 12.81ZM27.75 13.87L27.99 14.12L25.80 17.13L26.25 17.65L26.70 18.06L26.87 18.15L26.75 18.48L24.22 17.12L24.94 16.10L25.31 15.69L26.07 15.13L26.94 14.51L27.40 14.17L27.44 14.10ZM16.18 18.11L16.48 18.17L16.59 18.18L16.70 18.12L16.83 18.16L17.04 18.58L16.99 18.65L17.03 18.95L17.16 19.19L16.75 19.33L16.64 19.41L16.35 19.64L16.22 19.21L16.15 18.69ZM6.98 13.87L7.25 13.98L7.33 14.09L7.58 14.20L7.96 14.98L6.98 15.63L6.87 15.67L6.79 15.61L6.37 15.80L6.25 15.91L5.42 16.40L5.26 16.60L5.14 16.52L5.33 16.29L5.27 16.23L4.89 16.57L4.46 16.20L5.02 15.70L5.84 14.82L6.17 14.53L6.82 13.73ZM22.27 8.39L22.47 8.60L22.83 9.15L22.25 9.65L22.14 9.83L21.53 10.34L21.13 10.85L20.38 11.21L20.10 10.67L20.78 10.31L20.46 9.88L21.23 9.30ZM8.12 16.59L8.49 16.64L8.60 17.03L8.98 17.85L8.05 18.30L7.92 18.25L7.57 18.36L7.31 17.70L7.24 17.64L7.19 17.48L7.54 17.28L7.36 16.95ZM17.61 13.18L18.17 13.93L17.66 14.42L17.55 14.44L16.80 13.79ZM8.68 16.00L9.20 16.42L10.11 16.76L10.22 16.85L8.98 17.85L8.58 16.98L8.33 16.07L8.63 15.91ZM18.43 10.40L18.74 10.86L18.79 11.02L17.88 11.68L17.76 11.39L17.52 10.99L17.78 10.84ZM14.67 18.48L15.00 19.16L15.00 19.29L13.98 20.18L13.79 20.27L13.19 19.61L13.50 19.38L14.31 18.66ZM9.18 14.15L9.40 14.49L9.41 14.80L9.20 15.03L8.89 15.24L9.00 15.28L9.18 15.58L8.36 16.06L8.37 15.87L7.97 14.96ZM17.28 15.37L17.47 15.66L17.31 15.78L16.96 16.13L17.07 16.21L16.55 16.96L16.21 17.17L16.12 17.11L16.10 17.03L15.91 16.39ZM18.34 15.09L18.93 15.57L19.11 15.79L18.43 16.25L18.19 16.49L18.15 16.60L18.07 16.64L17.98 16.46L17.86 16.44L17.91 16.37L17.61 15.99L17.64 15.91L17.75 15.83L18.28 15.40L18.21 15.26L18.21 15.16ZM13.54 12.38L14.27 12.44L14.34 12.50L13.53 13.20L13.36 13.24L12.97 13.35L12.37 13.69L12.29 13.55L12.27 13.14L12.56 12.72L13.05 12.46ZM7.32 17.67L7.57 18.36L7.06 18.49L6.50 18.10L6.37 17.78ZM10.23 16.87L10.47 17.06L10.82 17.66L10.52 17.95L10.39 17.98L9.94 18.51L8.11 20.57L7.48 19.25L8.32 18.87L8.12 18.26L8.96 17.86L10.17 16.87ZM17.60 14.45L18.05 14.82L18.13 14.92L18.33 15.09L18.21 15.16L18.25 15.23L18.28 15.40L17.13 16.22L16.96 16.13L17.48 15.66L17.30 15.37L17.09 15.50L16.88 15.21L16.68 15.28L16.55 15.04L17.21 14.67L17.52 14.44ZM11.86 12.37L12.08 12.76L12.14 12.81L12.14 12.93L12.33 13.03L12.27 13.14L12.27 13.39L12.29 13.55L12.37 13.70L11.31 14.30L11.13 14.00L11.00 13.54L11.21 13.35L10.96 12.96ZM8.33 16.07L8.48 16.65L8.12 16.59L7.46 16.89L7.29 16.56ZM19.06 14.31L19.26 14.43L18.94 14.67L18.58 14.91L18.37 15.00L18.33 15.09L18.13 14.92L18.23 14.78L18.79 14.41ZM7.29 16.56L7.46 16.89L7.36 16.95L7.54 17.28L7.19 17.48L7.24 17.64L6.49 17.75L6.23 17.83L6.16 17.40L6.23 17.05L6.40 17.07ZM6.74 19.05L7.01 18.96L7.22 19.36L7.46 19.21L8.11 20.57L7.82 20.90L7.52 21.15L7.31 21.40L6.49 22.38L5.87 22.43L5.38 22.56L4.72 22.95L4.54 23.16L4.22 22.58L4.56 22.50L3.55 20.40L4.49 20.02L5.28 19.82L6.00 19.31L6.55 18.98L6.59 19.05L6.67 19.01ZM11.27 19.87L11.99 20.67L9.99 22.39L9.72 22.58L9.26 21.87L9.21 21.78L10.74 20.29ZM14.22 17.49L14.37 17.59L15.66 18.09L15.86 18.05L16.03 17.86L16.17 17.74L16.17 18.33L16.07 18.27L16.01 18.41L15.18 19.14L15.01 19.19L14.31 17.74L14.26 17.67L14.15 17.68ZM16.63 12.12L16.86 12.49L17.05 12.35L17.37 12.87L17.61 13.18L16.43 14.06L16.26 13.81L16.21 13.56L15.64 12.68L15.79 12.65L16.53 12.17ZM11.31 14.31L12.17 15.72L11.56 16.04L11.47 15.91L11.44 15.64L11.25 15.28L10.80 15.52L10.54 14.73ZM13.53 8.69L14.82 9.46L15.17 9.71L15.13 9.96L15.21 10.63L14.67 10.98L14.52 11.42L14.41 11.54L12.87 9.52L13.24 9.04L13.51 8.88L13.48 8.71ZM24.23 17.12L25.99 18.10L25.85 18.35L25.35 18.81L24.83 18.82L24.78 18.65L24.24 18.06L24.09 18.16L23.75 17.76ZM17.19 8.66L17.92 9.70L17.63 9.92L17.56 10.02L17.61 10.12L17.33 10.11L17.18 10.17L16.58 10.61L16.27 10.79L15.92 10.17L16.07 10.07L16.33 9.76L16.27 9.70L16.39 9.51L16.52 9.44L16.54 9.33L16.50 9.25L16.54 9.17ZM13.67 13.09L14.19 13.70L13.82 13.97L13.72 13.92L12.84 14.56L12.37 13.69L12.97 13.35L13.32 13.25L13.50 13.21ZM19.68 9.75L19.84 10.01L20.17 9.83L20.30 10.01L18.79 11.02L18.71 10.91L18.43 10.40L19.13 10.08L19.49 9.87ZM14.99 19.30L15.17 19.44L15.56 19.96L14.97 20.23L15.01 20.34L14.83 20.43L14.87 20.53L14.77 20.60L14.37 20.72L14.42 20.83L14.07 21.02L13.83 20.44L13.72 20.38L13.81 20.30L13.98 20.18ZM10.90 11.16L11.86 12.36L7.97 14.96L7.58 14.20L7.33 14.09L7.25 13.98L6.98 13.87L6.82 13.73L7.68 12.74L8.35 11.82L8.71 11.90L9.21 11.90L9.33 11.97L9.44 11.94L9.82 12.25L10.01 12.01L10.85 11.20ZM22.25 9.68L22.42 9.90L23.00 11.02L23.37 11.56L22.30 12.35L22.16 12.06L22.08 11.98L21.71 11.60L21.63 11.57L21.63 11.47L21.39 11.04L21.17 10.80L21.53 10.34L22.14 9.83ZM9.74 9.89L9.94 10.03L9.96 10.12L10.09 10.18L10.28 10.49L10.84 11.21L9.93 12.10L9.82 12.25L9.44 11.94L9.33 11.97L9.21 11.90L8.71 11.90L8.35 11.82L9.55 10.21ZM16.63 11.51L17.05 12.35L16.86 12.49L16.63 12.12L15.79 12.65L15.64 12.68L15.22 12.09L15.71 11.81L16.27 11.67ZM21.44 19.74L21.70 19.74L21.83 19.81L22.90 20.79L21.87 21.87L21.76 22.20L21.77 22.46L21.97 22.87L22.65 23.45L22.61 23.57L22.73 23.75L22.40 23.98L22.29 23.82L22.16 23.92L22.16 23.72L21.81 23.21L21.68 23.16L21.27 21.43L20.78 20.76L20.85 20.69L20.74 20.54L20.88 20.18L21.05 20.00L21.15 19.97ZM16.08 18.28L16.17 18.33L16.18 18.97L16.35 19.64L16.27 19.69L16.01 19.79L15.63 20.05L15.17 19.43L14.99 19.30L15.01 19.19L15.18 19.14L16.01 18.41ZM9.89 18.57L10.10 18.70L10.52 19.09L9.68 19.98L9.77 20.07L8.62 21.25L8.59 21.33L7.83 20.89ZM19.34 14.38L20.02 14.76L20.12 14.82L21.89 15.80L21.58 16.03L20.80 16.76L20.25 17.19L20.03 16.98L18.93 15.57L18.34 15.09L18.37 15.00L18.55 14.87L18.89 14.66ZM15.30 16.83L15.63 17.08L15.92 17.17L16.21 17.17L16.50 16.92L16.38 17.40L16.34 17.69L16.26 17.68L16.17 17.74L15.85 18.06L15.66 18.09L14.37 17.59L14.22 17.49L14.38 17.35L14.84 17.19ZM12.12 17.94L12.35 18.32L12.86 18.80L12.82 18.87L12.92 19.03L13.02 18.98L13.42 19.43L13.25 19.55L12.66 20.11L12.47 19.88L12.03 19.37L11.87 19.21L11.48 18.55ZM24.13 19.60L23.99 19.78L22.90 20.79L21.99 19.97L22.55 19.37L23.17 18.56ZM13.19 19.61L13.81 20.30L13.72 20.38L13.79 20.47L13.28 20.91L12.81 21.27L11.98 20.66L12.66 20.11ZM25.41 14.19L25.90 14.83L26.16 14.66L26.62 14.25L26.76 14.40L26.90 14.45L26.01 15.09L25.31 15.69L24.94 16.10L24.22 17.12L22.89 16.37L24.85 14.48ZM17.50 17.27L17.73 17.66L17.74 17.75L18.09 18.24L17.75 18.45L17.85 18.63L17.79 18.71L17.57 18.97L17.16 19.19L17.03 18.95L16.99 18.65L17.04 18.58L16.81 18.21L16.70 18.12L16.59 18.18L16.61 17.99ZM9.57 13.92L9.68 14.03L9.62 14.10L9.90 14.54L10.03 14.82L10.15 14.75L10.24 14.91L9.18 15.58L9.00 15.28L8.89 15.24L9.38 14.87L9.43 14.67L9.40 14.49L9.18 14.15ZM19.37 11.86L20.59 13.59L20.67 13.62L19.94 14.12L19.59 13.81L19.30 13.41L18.83 12.63L18.74 12.40L19.17 12.09ZM11.43 18.48L11.93 19.16L11.99 19.37L12.44 19.90L12.66 20.11L11.98 20.66L10.76 19.28L10.52 19.10L10.62 19.09L11.22 18.69ZM14.71 11.94L14.85 12.03L15.11 12.06L15.26 12.13L15.62 12.65L15.28 12.92L15.59 13.42L14.54 14.14L13.67 13.09L14.36 12.54L14.28 12.50L14.32 12.38L14.22 12.21L14.30 12.03L14.50 11.82L14.62 11.82ZM25.99 18.10L26.76 18.49L27.44 18.70L27.10 19.12L26.60 18.56L26.44 18.80L26.38 18.74L26.20 18.97L26.03 19.37L25.81 19.13L25.59 19.36L25.35 18.81L25.84 18.37ZM12.08 9.18L12.29 9.18L12.30 9.53L12.23 9.64L12.17 9.70L11.75 10.16L11.63 10.26L11.56 10.48L11.62 11.26L11.81 12.13L11.96 12.38L11.66 12.07L11.25 11.63L10.90 11.16L11.26 10.79L11.36 10.49L11.82 9.69L11.90 9.38ZM22.85 9.14L23.05 9.50L23.65 10.28L23.97 10.54L23.82 10.72L24.07 11.02L23.37 11.56L23.01 11.04L22.42 9.90L22.25 9.68L22.73 9.24ZM19.11 15.79L20.05 17.00L19.39 17.48L18.93 17.42L18.59 17.28L18.52 17.15L18.59 16.66L18.71 16.45L18.75 16.35L18.67 16.09ZM13.47 10.31L14.62 11.82L14.50 11.82L14.25 12.08L14.22 12.21L14.32 12.38L13.53 12.38L13.06 12.46L12.82 12.10L12.66 11.72L12.53 11.34L12.61 11.29L12.83 10.83L13.23 10.49L13.28 10.38ZM10.96 8.43L11.24 8.67L11.35 8.57L11.29 8.65L11.39 8.74L11.58 8.91L11.69 8.86L11.78 9.09L11.90 9.16L12.07 9.18L11.89 9.40L11.82 9.69L11.36 10.49L11.26 10.79L10.85 11.20L10.32 10.49L10.09 10.18L9.96 10.12L9.94 10.03L9.74 9.89L9.84 9.56L9.57 9.27L9.41 8.75L9.58 9.15L9.68 9.33L9.85 9.49L9.93 9.41L9.92 9.54L10.07 9.72L10.31 9.70L10.39 9.77L10.40 9.86L10.20 9.93L10.25 10.10L10.45 10.04L10.80 10.11L10.89 10.00L10.76 9.85L10.83 9.78L11.14 10.02L10.85 10.38L10.71 10.52L10.78 10.64L11.74 9.59L11.63 9.50L11.17 9.98L10.98 9.82L11.38 9.29L11.20 9.13L10.72 9.68L10.47 9.67L10.40 9.59L10.47 9.40L10.18 9.22L10.06 9.25L10.16 9.17L10.06 8.85L9.81 8.73L10.08 8.77L10.19 9.06L10.48 8.94ZM7.97 14.97L8.37 15.87L8.36 16.06L7.23 16.59L6.40 17.07L6.23 17.05L6.24 16.91L6.17 16.66L5.88 16.13L6.43 15.76L6.79 15.61L6.87 15.67L6.98 15.63ZM16.05 7.58L16.73 8.02L17.11 8.16L17.43 8.15L17.90 7.99L17.78 8.25L16.54 9.17L16.50 9.25L16.54 9.33L16.52 9.44L16.39 9.51L16.27 9.70L16.33 9.76L16.00 10.13L15.85 10.18L15.73 10.14L15.32 9.85L15.15 9.77L15.31 9.46L15.32 9.26L15.27 9.10L14.16 8.04L14.54 7.97L14.85 8.01L15.09 7.93L15.42 8.30L15.65 7.37ZM18.68 16.09L18.75 16.35L18.68 16.42L18.59 16.66L18.53 17.17L18.59 17.28L18.93 17.42L19.39 17.48L18.64 18.07L18.51 17.99L18.51 18.09L18.17 18.32L18.11 18.23L17.78 17.74L17.70 17.68L17.49 17.26L17.99 16.80L18.33 16.34ZM10.97 12.97L11.21 13.35L11.00 13.54L11.16 13.94L11.31 14.30L10.24 14.91L10.15 14.75L10.03 14.82L9.90 14.54L9.63 14.16L9.68 14.03L9.56 13.97L10.58 13.19ZM11.55 16.04L11.93 16.79L12.03 16.89L12.17 16.95L13.07 17.08L12.93 17.12L12.93 17.22L11.48 18.54L11.43 18.48L11.22 18.69L10.62 19.09L10.52 19.10L10.10 18.70L9.89 18.57L10.43 18.04L10.52 17.95L10.82 17.66L10.47 17.06L10.23 16.87L11.14 16.26ZM22.89 16.37L24.22 17.12L22.74 19.13L21.99 19.97L21.74 19.76L21.50 19.72L21.48 19.60L21.54 19.54L20.56 18.56L20.81 18.25L20.85 18.12L20.83 18.01L20.58 17.61L20.45 17.52L20.02 17.03L20.25 17.19L20.58 17.49L20.98 18.08L21.50 17.51L21.62 17.65L21.70 17.58L22.14 18.07L22.24 17.96L22.34 17.91L22.43 17.80L22.45 17.68L22.53 17.69L21.95 17.08L22.71 16.56ZM10.54 14.73L10.80 15.52L9.48 16.30L9.41 16.51L9.10 16.35L8.68 16.00L8.63 15.91L10.30 14.88ZM24.82 18.82L25.35 18.81L25.59 19.36L23.97 21.14L23.89 21.07L23.62 21.36L22.90 20.79L23.99 19.78L24.52 19.15ZM11.25 15.28L11.44 15.65L11.48 15.95L11.56 16.04L11.14 16.26L10.23 16.87L10.11 16.76L9.41 16.51L9.48 16.30L10.86 15.48ZM12.54 9.07L13.47 10.32L13.35 10.40L13.24 10.41L13.23 10.49L12.87 10.77L12.61 11.29L12.53 11.34L12.68 11.77L11.92 12.31L11.81 12.13L11.63 11.31L11.57 10.42L11.63 10.26L11.75 10.16L12.11 9.66L12.23 9.64L12.23 9.54L12.29 9.18ZM18.17 12.81L18.25 12.99L18.13 13.10L18.41 13.48L18.25 13.57L18.65 14.02L18.85 14.21L19.06 14.31L18.81 14.36L18.23 14.78L18.14 14.90L18.09 14.79L17.60 14.45L18.17 13.93L17.61 13.18L17.68 13.10ZM12.68 11.78L12.86 12.18L13.06 12.45L12.58 12.70L12.33 13.03L12.14 12.93L12.09 12.82L12.09 12.71L11.90 12.42L11.92 12.31ZM17.75 15.83L17.64 15.91L17.61 15.99L17.91 16.37L17.86 16.44L17.98 16.46L18.10 16.66L17.59 17.20L16.61 17.97L16.59 18.15L16.48 18.17L16.18 18.11L16.26 17.68L16.34 17.69L16.37 17.46L16.52 17.02L16.88 16.46L17.09 16.19L17.72 15.79ZM6.37 17.79L6.50 18.10L7.06 18.49L7.75 18.29L7.92 18.25L8.05 18.30L8.32 18.87L7.48 19.25L7.22 19.36L7.01 18.96L6.74 19.05L6.59 19.05L6.29 18.20L6.23 17.83ZM13.16 17.09L13.31 17.11L14.21 17.47L14.15 17.68L14.26 17.67L14.67 18.47L14.29 18.68L13.42 19.43L13.02 18.98L12.92 19.03L12.82 18.87L12.86 18.80L12.42 18.29L12.12 17.94L12.93 17.22L12.93 17.12ZM15.65 12.69L16.22 13.57L16.26 13.81L16.07 13.99L16.23 14.32L15.10 14.97L14.98 14.76L14.81 14.67L14.54 14.14L15.59 13.42L15.28 12.92ZM20.30 11.24L21.52 12.92L20.87 13.39L20.59 13.59L19.37 11.86L19.81 11.50ZM21.17 10.80L21.63 11.47L21.63 11.57L21.71 11.60L22.03 12.02L22.16 12.06L22.30 12.35L21.52 12.92L20.29 11.23L20.88 10.99ZM13.83 20.44L14.16 21.25L13.81 21.66L13.10 22.29L12.66 22.57L12.49 22.81L12.25 22.99L11.86 22.13L11.97 22.04L12.08 21.94L12.70 21.38L13.24 20.93ZM18.67 7.69L19.17 8.38L18.84 8.65L19.07 8.91L17.93 9.70L17.19 8.66L17.28 8.65L17.47 8.45L17.79 8.24L17.89 8.00ZM27.57 16.76L28.13 17.57L28.32 17.70L28.62 17.82L29.14 17.89L29.12 17.98L29.95 19.03L27.87 18.77L27.50 18.70L26.75 18.48L26.82 18.23L27.20 17.60ZM28.01 14.14L28.72 15.00L27.86 16.24L27.57 16.76L26.77 15.84ZM27.57 16.76L27.20 17.60L26.87 18.15L26.70 18.06L26.25 17.65L25.80 17.13L26.77 15.84ZM12.75 8.26L13.49 8.71L13.52 8.87L13.24 9.04L12.87 9.52L12.17 8.57L12.39 8.40ZM11.99 20.67L12.71 21.24L12.70 21.38L12.08 21.94L11.95 21.99L11.86 22.13L11.89 22.21L11.86 22.13L11.26 22.66L10.22 23.38L9.72 22.58L9.99 22.39ZM13.98 7.88L15.27 9.10L15.32 9.26L15.31 9.46L15.17 9.71L14.82 9.46L13.53 8.69L13.44 8.70L13.60 8.43L13.61 8.32L13.70 8.26L13.89 7.94ZM11.43 7.95L11.63 8.15L11.72 8.06L11.86 8.24L11.96 8.29L12.50 9.02L12.25 9.18L11.92 9.12L11.78 9.09L11.69 8.86L11.58 8.91L11.42 8.77L11.29 8.65L11.35 8.57L11.24 8.67L10.96 8.43ZM13.55 5.72L14.06 6.25L14.36 6.70L14.46 6.73L15.13 7.08L15.65 7.37L15.42 8.30L15.09 7.93L14.85 8.01L14.54 7.97L14.16 8.04L13.06 7.04L13.14 6.95L12.76 6.48L12.95 6.31L12.73 6.12L12.71 6.20L12.64 6.11L12.73 6.09L12.71 6.00L12.75 6.09L12.85 6.13L12.97 6.29L13.17 6.04ZM12.96 6.66L13.14 6.90L13.06 7.04L13.23 7.19L13.21 7.33L13.29 7.49L13.17 7.78L13.07 7.96L12.92 8.10L12.17 8.57L11.96 8.29L11.88 8.21L11.72 8.06L11.63 8.15L11.41 7.94L12.76 6.48ZM13.23 7.21L13.96 7.86L13.70 8.26L13.61 8.32L13.60 8.43L13.50 8.63L12.73 8.25L13.07 7.97L13.14 7.84L13.29 7.49L13.19 7.27ZM3.19 17.14L3.20 17.27L3.13 17.36L2.61 17.68L2.13 17.84L2.00 17.73L2.53 17.52L3.15 17.12ZM5.88 16.14L6.16 16.64L6.23 16.88L6.17 17.50L6.29 18.22L6.55 18.98L6.00 19.31L5.34 19.79L4.10 20.15L3.55 20.40L3.27 19.84L3.09 19.66L2.92 19.36L3.02 19.20L2.61 18.24L2.86 17.93L3.62 17.33L3.79 17.07L3.49 17.18L3.43 17.12L3.46 16.99L4.41 16.23L4.89 16.57L5.27 16.23L5.33 16.29L5.14 16.52L5.24 16.60L5.46 16.47ZM28.72 15.00L29.35 16.14L29.78 16.71L29.80 16.88L29.73 16.96L30.00 17.94L28.86 17.86L28.62 17.82L28.32 17.70L28.13 17.57L27.57 16.76L27.86 16.24ZM15.51 24.76L15.67 24.84L16.09 25.63L15.89 25.75L15.49 25.96L15.30 25.69L15.00 25.88L14.62 26.28L13.92 25.73L14.48 25.39L14.70 25.20ZM15.09 23.99L15.19 24.15L15.28 24.10L15.67 24.84L15.54 24.77L15.46 24.77L14.50 25.33L13.59 24.70L13.79 24.54L14.20 24.43L14.85 24.06ZM25.76 21.60L26.54 22.72L24.82 23.94L24.07 22.79L25.00 22.12L25.00 22.04L25.60 21.62L25.69 21.64ZM7.84 20.90L8.72 21.40L9.20 21.77L10.22 23.38L9.86 23.64L9.73 23.62L8.90 24.24L8.51 23.58L8.35 23.42L7.30 21.47L7.55 21.12ZM23.89 21.07L24.84 22.13L25.00 22.04L25.00 22.12L22.73 23.75L22.61 23.57L22.65 23.45L22.06 22.96L22.16 22.79L22.39 22.65ZM22.91 20.80L23.62 21.36L23.38 21.57L22.39 22.65L22.14 22.80L22.05 22.95L21.87 22.69L21.76 22.42L21.76 22.21L21.82 21.96L21.92 21.81ZM14.17 21.27L15.00 23.35L14.91 23.40L14.82 23.28L14.53 23.31L14.16 23.46L13.98 23.56L13.89 23.68L13.64 23.70L13.39 23.80L13.43 23.71L12.96 23.81L12.49 22.81L12.62 22.61L13.17 22.24L13.85 21.62L14.07 21.33ZM14.82 23.28L15.28 24.10L15.19 24.15L15.09 23.99L14.91 24.04L14.20 24.43L13.80 24.53L13.59 24.70L13.74 24.53L13.37 24.16L13.43 24.10L13.36 24.03L13.46 23.99L13.38 23.81L13.16 23.95L13.08 23.76L13.39 23.67L13.39 23.80L13.64 23.70L13.89 23.68L13.98 23.56L14.34 23.37Z" fill="#e31a1c" stroke="#e31a1c" stroke-width="0.3" stroke-linejoin="round"/></svg>
